<mxfile host="app.diagrams.net" modified="2023-08-21T17:12:22.407Z" agent="Mozilla/5.0 (Macintosh; Intel Mac OS X 10_15_7) AppleWebKit/537.36 (KHTML, like Gecko) Chrome/115.0.0.0 Safari/537.36 Edg/115.0.1901.203" version="21.6.8" etag="1IFFU_GPvtU27oKCKME-" type="github">
  <diagram name="Page-1" id="OQF8RiDgonVAtaVmZ_uC">
    <mxGraphModel>
      <root>
        <mxCell id="0" />
        <mxCell id="1" parent="0" />
      </root>
    </mxGraphModel>
  </diagram>
</mxfile>
